<svg width="231" height="34" viewBox="0 0 231 34" fill="none" xmlns="http://www.w3.org/2000/svg">
<rect x="1" y="1" width="18" height="18" stroke="#0496FF" stroke-width="2"/>
<path d="M12.1136 28V10.5455H22.6477V12.4205H14.2273V18.3182H22.1023V20.1932H14.2273V26.125H22.7841V28H12.1136ZM28.196 20.125V28H26.1847V14.9091H28.1278V16.9545H28.2983C28.6051 16.2898 29.071 15.7557 29.696 15.3523C30.321 14.9432 31.1278 14.7386 32.1165 14.7386C33.0028 14.7386 33.7784 14.9205 34.4432 15.2841C35.108 15.642 35.625 16.1875 35.9943 16.9205C36.3636 17.6477 36.5483 18.5682 36.5483 19.6818V28H34.5369V19.8182C34.5369 18.7898 34.2699 17.9886 33.7358 17.4148C33.2017 16.8352 32.4688 16.5455 31.5369 16.5455C30.8949 16.5455 30.321 16.6847 29.8153 16.9631C29.3153 17.2415 28.9205 17.6477 28.6307 18.1818C28.3409 18.7159 28.196 19.3636 28.196 20.125ZM40.2237 28V14.9091H42.1669V16.8864H42.3033C42.5419 16.2386 42.9737 15.7131 43.5987 15.3097C44.2237 14.9062 44.9283 14.7045 45.7124 14.7045C45.8601 14.7045 46.0447 14.7074 46.2663 14.7131C46.4879 14.7187 46.6555 14.7273 46.7692 14.7386V16.7841C46.701 16.767 46.5447 16.7415 46.3004 16.7074C46.0618 16.6676 45.8089 16.6477 45.5419 16.6477C44.9055 16.6477 44.3374 16.7812 43.8374 17.0483C43.343 17.3097 42.951 17.6733 42.6612 18.1392C42.3771 18.5994 42.2351 19.125 42.2351 19.7159V28H40.2237ZM54.0732 28.2727C52.8913 28.2727 51.8544 27.9915 50.9624 27.429C50.076 26.8665 49.3828 26.0795 48.8828 25.0682C48.3885 24.0568 48.1413 22.875 48.1413 21.5227C48.1413 20.1591 48.3885 18.9687 48.8828 17.9517C49.3828 16.9347 50.076 16.1449 50.9624 15.5824C51.8544 15.0199 52.8913 14.7386 54.0732 14.7386C55.255 14.7386 56.2891 15.0199 57.1754 15.5824C58.0675 16.1449 58.7607 16.9347 59.255 17.9517C59.755 18.9687 60.005 20.1591 60.005 21.5227C60.005 22.875 59.755 24.0568 59.255 25.0682C58.7607 26.0795 58.0675 26.8665 57.1754 27.429C56.2891 27.9915 55.255 28.2727 54.0732 28.2727ZM54.0732 26.4659C54.9709 26.4659 55.7095 26.2358 56.2891 25.7756C56.8686 25.3153 57.2976 24.7102 57.576 23.9602C57.8544 23.2102 57.9936 22.3977 57.9936 21.5227C57.9936 20.6477 57.8544 19.8324 57.576 19.0767C57.2976 18.321 56.8686 17.7102 56.2891 17.2443C55.7095 16.7784 54.9709 16.5455 54.0732 16.5455C53.1754 16.5455 52.4368 16.7784 51.8572 17.2443C51.2777 17.7102 50.8487 18.321 50.5703 19.0767C50.2919 19.8324 50.1527 20.6477 50.1527 21.5227C50.1527 22.3977 50.2919 23.2102 50.5703 23.9602C50.8487 24.7102 51.2777 25.3153 51.8572 25.7756C52.4368 26.2358 53.1754 26.4659 54.0732 26.4659ZM71.3253 22.6477V14.9091H73.3366V28H71.3253V25.7841H71.1889C70.8821 26.4489 70.4048 27.0142 69.7571 27.4801C69.1094 27.9403 68.2912 28.1705 67.3026 28.1705C66.4844 28.1705 65.7571 27.9915 65.1207 27.6335C64.4844 27.2699 63.9844 26.7244 63.6207 25.9972C63.2571 25.2642 63.0753 24.3409 63.0753 23.2273V14.9091H65.0866V23.0909C65.0866 24.0455 65.3537 24.8068 65.8878 25.375C66.4276 25.9432 67.1151 26.2273 67.9503 26.2273C68.4503 26.2273 68.9588 26.0994 69.4759 25.8438C69.9986 25.5881 70.4361 25.196 70.7884 24.6676C71.1463 24.1392 71.3253 23.4659 71.3253 22.6477ZM82.7138 14.9091V16.6136H75.9297V14.9091H82.7138ZM77.907 11.7727H79.9183V24.25C79.9183 24.8182 80.0007 25.2443 80.1655 25.5284C80.3359 25.8068 80.5518 25.9943 80.8132 26.0909C81.0803 26.1818 81.3615 26.2273 81.657 26.2273C81.8786 26.2273 82.0604 26.2159 82.2024 26.1932C82.3445 26.1648 82.4581 26.142 82.5433 26.125L82.9524 27.9318C82.8161 27.983 82.6257 28.0341 82.3814 28.0852C82.1371 28.142 81.8274 28.1705 81.4524 28.1705C80.8842 28.1705 80.3274 28.0483 79.782 27.804C79.2422 27.5597 78.7933 27.1875 78.4354 26.6875C78.0831 26.1875 77.907 25.5568 77.907 24.7955V11.7727ZM91.0874 28.2727C89.826 28.2727 88.7379 27.9943 87.8232 27.4375C86.9141 26.875 86.2124 26.0909 85.718 25.0852C85.2294 24.0739 84.9851 22.8977 84.9851 21.5568C84.9851 20.2159 85.2294 19.0341 85.718 18.0114C86.2124 16.983 86.8999 16.1818 87.7805 15.608C88.6669 15.0284 89.701 14.7386 90.8828 14.7386C91.5646 14.7386 92.2379 14.8523 92.9027 15.0795C93.5675 15.3068 94.1726 15.6761 94.718 16.1875C95.2635 16.6932 95.6982 17.3636 96.022 18.1989C96.3459 19.0341 96.5078 20.0625 96.5078 21.2841V22.1364H86.4169V20.3977H94.4624C94.4624 19.6591 94.3146 19 94.0192 18.4205C93.7294 17.8409 93.3146 17.3835 92.7749 17.0483C92.2408 16.7131 91.6101 16.5455 90.8828 16.5455C90.0817 16.5455 89.3885 16.7443 88.8033 17.142C88.2237 17.5341 87.7777 18.0455 87.4652 18.6761C87.1527 19.3068 86.9964 19.983 86.9964 20.7045V21.8636C86.9964 22.8523 87.1669 23.6903 87.5078 24.3778C87.8544 25.0597 88.3345 25.5795 88.9482 25.9375C89.5618 26.2898 90.2749 26.4659 91.0874 26.4659C91.6158 26.4659 92.093 26.392 92.5192 26.2443C92.951 26.0909 93.3232 25.8636 93.6357 25.5625C93.9482 25.2557 94.1896 24.875 94.3601 24.4205L96.3033 24.9659C96.0987 25.625 95.755 26.2045 95.272 26.7045C94.7891 27.1989 94.1925 27.5852 93.4822 27.8636C92.772 28.1364 91.9737 28.2727 91.0874 28.2727ZM116.136 14.9091C116.033 14.0455 115.619 13.375 114.891 12.8977C114.164 12.4205 113.272 12.1818 112.215 12.1818C111.442 12.1818 110.766 12.3068 110.187 12.5568C109.613 12.8068 109.164 13.1506 108.84 13.5881C108.522 14.0256 108.363 14.5227 108.363 15.0795C108.363 15.5455 108.474 15.946 108.695 16.2812C108.923 16.6108 109.212 16.8864 109.565 17.108C109.917 17.3239 110.286 17.5028 110.673 17.6449C111.059 17.7812 111.414 17.892 111.738 17.9773L113.511 18.4545C113.965 18.5739 114.471 18.7386 115.028 18.9489C115.59 19.1591 116.127 19.446 116.638 19.8097C117.156 20.1676 117.582 20.6278 117.917 21.1903C118.252 21.7528 118.42 22.4432 118.42 23.2614C118.42 24.2045 118.173 25.0568 117.678 25.8182C117.19 26.5795 116.474 27.1847 115.531 27.6335C114.593 28.0824 113.454 28.3068 112.113 28.3068C110.863 28.3068 109.781 28.1051 108.866 27.7017C107.957 27.2983 107.241 26.7358 106.718 26.0142C106.201 25.2926 105.908 24.4545 105.84 23.5H108.022C108.079 24.1591 108.3 24.7045 108.687 25.1364C109.079 25.5625 109.573 25.8807 110.17 26.0909C110.772 26.2955 111.42 26.3977 112.113 26.3977C112.92 26.3977 113.644 26.267 114.286 26.0057C114.928 25.7386 115.437 25.3693 115.812 24.8977C116.187 24.4205 116.374 23.8636 116.374 23.2273C116.374 22.6477 116.212 22.1761 115.888 21.8125C115.565 21.4489 115.138 21.1534 114.61 20.9261C114.082 20.6989 113.511 20.5 112.897 20.3295L110.749 19.7159C109.386 19.3239 108.306 18.7642 107.511 18.0369C106.715 17.3097 106.317 16.358 106.317 15.1818C106.317 14.2045 106.582 13.3523 107.11 12.625C107.644 11.892 108.36 11.3239 109.258 10.9205C110.161 10.5114 111.17 10.3068 112.283 10.3068C113.408 10.3068 114.408 10.5085 115.283 10.9119C116.158 11.3097 116.852 11.8551 117.363 12.5483C117.88 13.2415 118.153 14.0284 118.181 14.9091H116.136ZM126.94 28.2727C125.713 28.2727 124.656 27.983 123.77 27.4034C122.884 26.8239 122.202 26.0256 121.724 25.0085C121.247 23.9915 121.009 22.8295 121.009 21.5227C121.009 20.1932 121.253 19.0199 121.741 18.0028C122.236 16.9801 122.923 16.1818 123.804 15.608C124.69 15.0284 125.724 14.7386 126.906 14.7386C127.827 14.7386 128.656 14.9091 129.395 15.25C130.134 15.5909 130.739 16.0682 131.21 16.6818C131.682 17.2955 131.974 18.0114 132.088 18.8295H130.077C129.923 18.233 129.582 17.7045 129.054 17.2443C128.531 16.7784 127.827 16.5455 126.94 16.5455C126.156 16.5455 125.469 16.75 124.878 17.1591C124.293 17.5625 123.835 18.1335 123.506 18.8722C123.182 19.6051 123.02 20.4659 123.02 21.4545C123.02 22.4659 123.179 23.3466 123.497 24.0966C123.821 24.8466 124.276 25.429 124.861 25.8438C125.452 26.2585 126.145 26.4659 126.94 26.4659C127.463 26.4659 127.938 26.375 128.364 26.1932C128.79 26.0114 129.151 25.75 129.446 25.4091C129.741 25.0682 129.952 24.6591 130.077 24.1818H132.088C131.974 24.9545 131.693 25.6506 131.244 26.2699C130.801 26.8835 130.213 27.3722 129.48 27.7358C128.753 28.0938 127.906 28.2727 126.94 28.2727ZM137.04 20.125V28H135.028V10.5455H137.04V16.9545H137.21C137.517 16.2784 137.977 15.7415 138.591 15.3438C139.21 14.9403 140.034 14.7386 141.062 14.7386C141.955 14.7386 142.736 14.9176 143.406 15.2756C144.077 15.6278 144.597 16.1705 144.966 16.9034C145.341 17.6307 145.528 18.5568 145.528 19.6818V28H143.517V19.8182C143.517 18.7784 143.247 17.9744 142.707 17.4062C142.173 16.8324 141.432 16.5455 140.483 16.5455C139.824 16.5455 139.233 16.6847 138.71 16.9631C138.193 17.2415 137.784 17.6477 137.483 18.1818C137.188 18.7159 137.04 19.3636 137.04 20.125ZM154.697 28.2727C153.435 28.2727 152.347 27.9943 151.433 27.4375C150.523 26.875 149.822 26.0909 149.327 25.0852C148.839 24.0739 148.594 22.8977 148.594 21.5568C148.594 20.2159 148.839 19.0341 149.327 18.0114C149.822 16.983 150.509 16.1818 151.39 15.608C152.276 15.0284 153.31 14.7386 154.492 14.7386C155.174 14.7386 155.847 14.8523 156.512 15.0795C157.177 15.3068 157.782 15.6761 158.327 16.1875C158.873 16.6932 159.308 17.3636 159.631 18.1989C159.955 19.0341 160.117 20.0625 160.117 21.2841V22.1364H150.026V20.3977H158.072C158.072 19.6591 157.924 19 157.629 18.4205C157.339 17.8409 156.924 17.3835 156.384 17.0483C155.85 16.7131 155.219 16.5455 154.492 16.5455C153.691 16.5455 152.998 16.7443 152.413 17.142C151.833 17.5341 151.387 18.0455 151.075 18.6761C150.762 19.3068 150.606 19.983 150.606 20.7045V21.8636C150.606 22.8523 150.776 23.6903 151.117 24.3778C151.464 25.0597 151.944 25.5795 152.558 25.9375C153.171 26.2898 153.884 26.4659 154.697 26.4659C155.225 26.4659 155.702 26.392 156.129 26.2443C156.56 26.0909 156.933 25.8636 157.245 25.5625C157.558 25.2557 157.799 24.875 157.969 24.4205L159.913 24.9659C159.708 25.625 159.364 26.2045 158.881 26.7045C158.398 27.1989 157.802 27.5852 157.092 27.8636C156.381 28.1364 155.583 28.2727 154.697 28.2727ZM168.12 28.2727C167.029 28.2727 166.066 27.9972 165.231 27.446C164.396 26.8892 163.742 26.1051 163.271 25.0938C162.799 24.0767 162.563 22.875 162.563 21.4886C162.563 20.1136 162.799 18.9205 163.271 17.9091C163.742 16.8977 164.398 16.1165 165.239 15.5653C166.08 15.0142 167.052 14.7386 168.154 14.7386C169.006 14.7386 169.68 14.8807 170.174 15.1648C170.674 15.4432 171.055 15.7614 171.316 16.1193C171.583 16.4716 171.79 16.7614 171.938 16.9886H172.109V10.5455H174.12V28H172.177V25.9886H171.938C171.79 26.2273 171.58 26.5284 171.308 26.892C171.035 27.25 170.646 27.571 170.14 27.8551C169.634 28.1335 168.961 28.2727 168.12 28.2727ZM168.393 26.4659C169.2 26.4659 169.881 26.2557 170.438 25.8352C170.995 25.4091 171.418 24.821 171.708 24.071C171.998 23.3153 172.143 22.4432 172.143 21.4545C172.143 20.4773 172.001 19.6222 171.717 18.8892C171.433 18.1506 171.012 17.5767 170.455 17.1676C169.898 16.7528 169.211 16.5455 168.393 16.5455C167.54 16.5455 166.83 16.7642 166.262 17.2017C165.7 17.6335 165.276 18.2216 164.992 18.9659C164.714 19.7045 164.575 20.5341 164.575 21.4545C164.575 22.3864 164.717 23.233 165.001 23.9943C165.29 24.75 165.717 25.3523 166.279 25.8011C166.847 26.2443 167.552 26.4659 168.393 26.4659ZM186.333 22.6477V14.9091H188.344V28H186.333V25.7841H186.197C185.89 26.4489 185.413 27.0142 184.765 27.4801C184.117 27.9403 183.299 28.1705 182.31 28.1705C181.492 28.1705 180.765 27.9915 180.129 27.6335C179.492 27.2699 178.992 26.7244 178.629 25.9972C178.265 25.2642 178.083 24.3409 178.083 23.2273V14.9091H180.094V23.0909C180.094 24.0455 180.362 24.8068 180.896 25.375C181.435 25.9432 182.123 26.2273 182.958 26.2273C183.458 26.2273 183.967 26.0994 184.484 25.8438C185.006 25.5881 185.444 25.196 185.796 24.6676C186.154 24.1392 186.333 23.4659 186.333 22.6477ZM194.04 10.5455V28H192.028V10.5455H194.04ZM197.724 28V14.9091H199.735V28H197.724ZM198.746 12.7273C198.354 12.7273 198.016 12.5938 197.732 12.3267C197.454 12.0597 197.315 11.7386 197.315 11.3636C197.315 10.9886 197.454 10.6676 197.732 10.4006C198.016 10.1335 198.354 10 198.746 10C199.138 10 199.474 10.1335 199.752 10.4006C200.036 10.6676 200.178 10.9886 200.178 11.3636C200.178 11.7386 200.036 12.0597 199.752 12.3267C199.474 12.5938 199.138 12.7273 198.746 12.7273ZM205.43 20.125V28H203.419V14.9091H205.362V16.9545H205.533C205.839 16.2898 206.305 15.7557 206.93 15.3523C207.555 14.9432 208.362 14.7386 209.351 14.7386C210.237 14.7386 211.013 14.9205 211.678 15.2841C212.342 15.642 212.859 16.1875 213.229 16.9205C213.598 17.6477 213.783 18.5682 213.783 19.6818V28H211.771V19.8182C211.771 18.7898 211.504 17.9886 210.97 17.4148C210.436 16.8352 209.703 16.5455 208.771 16.5455C208.129 16.5455 207.555 16.6847 207.05 16.9631C206.55 17.2415 206.155 17.6477 205.865 18.1818C205.575 18.7159 205.43 19.3636 205.43 20.125ZM222.742 33.1818C221.771 33.1818 220.935 33.0568 220.237 32.8068C219.538 32.5625 218.955 32.2386 218.489 31.8352C218.029 31.4375 217.663 31.0114 217.39 30.5568L218.992 29.4318C219.174 29.6705 219.404 29.9432 219.683 30.25C219.961 30.5625 220.342 30.8324 220.825 31.0597C221.313 31.2926 221.952 31.4091 222.742 31.4091C223.799 31.4091 224.671 31.1534 225.359 30.642C226.046 30.1307 226.39 29.3295 226.39 28.2386V25.5795H226.219C226.072 25.8182 225.862 26.1136 225.589 26.4659C225.322 26.8125 224.935 27.1222 224.43 27.3949C223.93 27.6619 223.254 27.7955 222.401 27.7955C221.344 27.7955 220.396 27.5455 219.555 27.0455C218.719 26.5455 218.058 25.8182 217.569 24.8636C217.086 23.9091 216.844 22.75 216.844 21.3864C216.844 20.0455 217.08 18.8778 217.552 17.8835C218.023 16.8835 218.68 16.1108 219.521 15.5653C220.362 15.0142 221.333 14.7386 222.435 14.7386C223.288 14.7386 223.964 14.8807 224.464 15.1648C224.969 15.4432 225.356 15.7614 225.623 16.1193C225.896 16.4716 226.106 16.7614 226.254 16.9886H226.458V14.9091H228.401V28.375C228.401 29.5 228.146 30.4148 227.634 31.1193C227.129 31.8295 226.447 32.3494 225.589 32.679C224.737 33.0142 223.788 33.1818 222.742 33.1818ZM222.674 25.9886C223.481 25.9886 224.163 25.804 224.719 25.4347C225.276 25.0653 225.7 24.5341 225.989 23.8409C226.279 23.1477 226.424 22.3182 226.424 21.3523C226.424 20.4091 226.282 19.5767 225.998 18.8551C225.714 18.1335 225.293 17.5682 224.737 17.1591C224.18 16.75 223.492 16.5455 222.674 16.5455C221.822 16.5455 221.112 16.7614 220.543 17.1932C219.981 17.625 219.558 18.2045 219.273 18.9318C218.995 19.6591 218.856 20.4659 218.856 21.3523C218.856 22.2614 218.998 23.0653 219.282 23.7642C219.572 24.4574 219.998 25.0028 220.56 25.4006C221.129 25.7926 221.833 25.9886 222.674 25.9886Z" fill="black"/>
</svg>
